<?xml version="1.0" encoding="utf-8"?>
<!-- Generator: Adobe Illustrator 16.0.0, SVG Export Plug-In . SVG Version: 6.00 Build 0)  -->
<!DOCTYPE svg PUBLIC "-//W3C//DTD SVG 1.1//EN" "http://www.w3.org/Graphics/SVG/1.1/DTD/svg11.dtd">
<svg version="1.1" id="Layer_1" xmlns="http://www.w3.org/2000/svg" xmlns:xlink="http://www.w3.org/1999/xlink" x="0px" y="0px"
	 width="127.559px" height="113.386px" viewBox="0 0 127.559 113.386" enable-background="new 0 0 127.559 113.386"
	 xml:space="preserve">
<g>
	<g>
		<path fill="#3F8699" d="M116.631,70.935c0-0.149-0.015-0.295-0.017-0.443c-0.009-0.467-0.023-0.933-0.052-1.396
			c-0.025-0.455-0.063-0.907-0.106-1.357c-0.005-0.055-0.012-0.107-0.018-0.161c-1.201-11.702-8.585-21.646-18.96-26.767
			c2.904-6.976,5.8-14.127,7.018-17.729c3.323-9.829-2.623-12.748-9.709-12.748l-14.988-0.09c-7.082,0-11.908,3.202-15.326,11.879
			l-2.425,5.703c-5.143-3.058-11.143-4.833-17.559-4.868v-0.002H22.65c-7.178,0-12.996,5.798-13.003,12.951v43.231
			c0.009,7.151,5.827,12.943,13.003,12.943h21.84v-0.002c2.991-0.017,5.892-0.41,8.657-1.135
			c6.268,8.276,16.342,13.683,27.752,13.798c0.194,0.011,0.39,0.023,0.586,0.028v0.023c0.106,0,0.211-0.007,0.316-0.008
			c0.053,0.001,0.104,0.008,0.157,0.008c19.151,0,34.673-15.077,34.673-33.672c0-0.031-0.002-0.063-0.002-0.094
			S116.631,70.966,116.631,70.935z M65.373,22.474c3.11-7.897,7.424-11.269,14.423-11.269l14.992,0.09
			c2.932,0,6.807,0.53,8.621,3.049c1.365,1.893,1.424,4.73,0.174,8.428c-1.022,3.023-3.44,9.133-6.995,17.67l-0.052,0.126
			c-4.433-1.998-9.369-3.121-14.577-3.121c9.575,0,17.339,7.537,17.339,16.835c0,9.3-7.764,16.839-17.339,16.839
			c-2.219,0-4.333,0.42-6.284,1.158c2.127-4.477,3.319-9.479,3.319-14.762c0-12.277-6.432-23.051-16.115-29.182L65.373,22.474z
			 M40.418,57.518c-0.144,0-0.287,0.007-0.432,0.013v-0.013H26.983c-7.588,0-14.021-4.867-16.371-11.634v-9.978
			c0.005-6.61,5.406-11.988,12.037-11.988h21.493l0.341,0.002c18.496,0.102,33.544,15.173,33.544,33.599
			c0,5.531-1.364,10.756-3.763,15.369c-4.491,2.166-7.869,6.16-9.109,10.988c-5.271,4.15-11.801,6.779-18.916,7.186
			c6.708-2.386,11.515-8.754,11.515-16.261C57.755,65.256,49.995,57.518,40.418,57.518z M54.16,90.653
			c3.892-1.147,7.499-2.953,10.688-5.294c-0.136,0.849-0.227,1.712-0.227,2.598c0,6.677,4.014,12.429,9.816,15.151
			C66.192,101.47,59.037,96.934,54.16,90.653z"/>
	</g>
</g>
</svg>
